<svg id="Layer_1" data-name="Layer 1" xmlns="http://www.w3.org/2000/svg" viewBox="0 0 350 350"><defs><style>.cls-1{fill:#9d8560;}.cls-2{fill:#e0689f;}.cls-3{fill:#4abfb0;}.cls-4{fill:#d0292a;}.cls-5{fill:#ed3767;}.cls-6{fill:#f0ba42;}.cls-7{fill:#f7e84c;}.cls-8{fill:#f09656;}.cls-9{fill:#e4853b;}.cls-10{fill:#f9a762;}.cls-11{fill:#ee9850;}.cls-12{fill:#f39650;}.cls-13{fill:#1f448b;}.cls-14{fill:#f8a46c;}.cls-15{fill:#4ebea6;}.cls-16{fill:#9aa9d1;}.cls-17{fill:#e66a9d;}.cls-18{fill:#ede844;}.cls-19{fill:#7fcfe6;}.cls-20{fill:#80c3b4;}.cls-21{fill:#fff;}.cls-22{fill:#c284b9;}.cls-23{fill:#e76e6e;}</style></defs><polygon class="cls-1" points="36.8 160.11 56.41 168.69 57.5 176.32 37.34 168.28 36.8 160.11"/><polygon class="cls-1" points="55.47 160.11 75.08 168.69 76.17 176.32 56.02 168.28 55.47 160.11"/><polygon class="cls-1" points="33.92 143.89 27.11 101.12 8.86 96.63 22.88 143.75 33.92 143.89"/><polygon class="cls-2" points="33.53 143.56 83.84 143.56 81.57 160.45 35.8 160.45 33.53 143.56"/><polygon class="cls-3" points="50.63 95.05 84.11 143.56 33.53 143.56 50.63 95.05"/><polygon class="cls-4" points="78.96 96.2 66.99 84.99 71.06 95.66 78.96 96.2"/><polygon class="cls-5" points="79.48 82.72 73.8 91.53 68.06 87.28 65.63 81.13 79.48 82.72"/><polygon class="cls-1" points="47.02 64.94 34.89 64.67 38.71 60.31 49.53 61.13 47.02 64.94"/><polygon class="cls-1" points="43.1 70.56 30.26 70.46 23.66 77.61 38.77 76.59 43.1 70.56"/><path class="cls-1" d="M37,133.85l6.44-18.28L50,133.8S37.29,133.51,37,133.85Z"/><polygon class="cls-6" points="75.75 62.43 48.99 62.43 81.88 55.34 75.75 62.43"/><polygon class="cls-7" points="49.33 62.15 60.5 62.15 81.88 55.34 49.33 62.15"/><polygon class="cls-8" points="49.53 61.13 75.75 62.43 63.84 75.43 38.77 76.59 49.53 61.13"/><polygon class="cls-9" points="71.06 95.66 38.77 76.59 63.84 75.43 71.06 95.66"/><polygon class="cls-10" points="63.84 75.43 83.45 72.23 75.75 62.43 63.84 75.43"/><polygon class="cls-11" points="38.77 76.59 63.5 91.17 50.63 95.05 38.77 76.59"/><polygon class="cls-12" points="83.45 72.23 84.75 79.66 74.39 85.78 65.86 81.27 63.84 75.43 83.45 72.23"/><path class="cls-13" d="M103.68,143.67c-5-7.35-17.64-8.1-17.64-8.1l-.61,24.65h6.4v-3.81l5.86,5.51,4.56-1.63-4.56-5S108.65,151,103.68,143.67ZM92,150.87v-4.68s4.81.32,4.95,2.59S92,150.87,92,150.87Z"/><polygon class="cls-13" points="112.98 160.81 122.29 160.81 122.29 135.34 114.21 136.11 112.98 160.81"/><polygon class="cls-13" points="157.02 134.57 157.02 146.69 147.04 147.42 146.95 160.81 138.32 160.81 138.14 148.1 129.69 148.19 129.65 137.34 145.9 135.7 153.79 134.9 157.02 134.57"/><polygon class="cls-13" points="177.19 153.04 182.44 152.87 182.44 160.19 164.42 160.19 172.82 142.74 164.56 142.92 164.51 134.8 166.9 135.05 170.11 135.38 183.19 136.76 177.19 153.04"/><polygon class="cls-13" points="190.58 135.43 198.02 135.43 201.25 143.56 204.97 134.8 213.01 134.84 200.56 161.9 193.16 159 196.94 149.84 190.58 135.43"/><path class="cls-13" d="M85.29,204.32s.58,2.69,2.83,1.46a49,49,0,0,0,5.51-3.85s1.3-1.12-.3-3.26-11.4-11.89-27.47-11.52S43.25,192.09,37,197.5s-5.91,9.4-5.91,9.4-.23,1.49,2.23,1.49h12.8s2.27.59,4.13-3.17,11.58-13.17,21.8-10.58S85.29,204.32,85.29,204.32Z"/><path class="cls-13" d="M28.22,213.21H46s-4.72,27.15,18.68,30.17c0,0,12.67,2.18,25.2-12.88,0,0,.62-1.49,2,.62a51.24,51.24,0,0,1,2.86,5.45s.41.74-.62,1.83-6.86,13.39-28.87,13.08C42.61,251.16,25.09,234.45,28.22,213.21Z"/><rect class="cls-13" x="107.81" y="218.65" width="32.87" height="8.08"/><path class="cls-13" d="M170.37,212.21c-.14-.2-2.64-3.55-6.53-3.18-.2,0-3.72.4-4.73,2.81-1.35,3.25,3,7.34,3.91,8.18,1.5,1.41,2.19,1.49,4.63,3,4.14,2.62,7.85,5,9.67,9.12a12.34,12.34,0,0,1-4,15.17c-4.14,3.18-10.66,4.26-15.75,1.22-.89-.53-5.28-3.15-5.95-8.4-.11-.88-.93-6,2.45-8.39a6.23,6.23,0,0,1,6.36-.55,6.13,6.13,0,0,1,3.18,6,6.53,6.53,0,0,1-8.13,5.49,8.08,8.08,0,0,0,4.81,5.54c2.67,1.1,7,1.25,9.9-1.5a6.84,6.84,0,0,0,2.54-4.76,7.44,7.44,0,0,0-2.08-4.77,10.91,10.91,0,0,0-1.87-1.68,26.41,26.41,0,0,0-5.22-3.09c-1.75-.79-7-3.16-9.49-7.85a12.26,12.26,0,0,1-1.22-8,11.68,11.68,0,0,1,3.9-6.72,11.5,11.5,0,0,1,10.35-2.23,12,12,0,0,1,4,2.14,8.26,8.26,0,0,1,2.73,3.13c.8,1.76,1.13,4.51-.41,6.49a4.75,4.75,0,0,1-2.09,1.54,4.9,4.9,0,0,1-5.31-1.4,4.47,4.47,0,0,1,2.5-7.45A4.07,4.07,0,0,1,170.37,212.21Z"/><path class="cls-13" d="M187.17,207.67a.11.11,0,0,0-.06.21,4.71,4.71,0,0,1,1.7,1.69,4.81,4.81,0,0,1,.54,2.64c-.27,6,.18,12,0,18a45.08,45.08,0,0,0,0,5.64c.31,3.27.68,7.09,3.45,10.16a12.46,12.46,0,0,0,5.27,3.36c5.72,1.91,10.9-.94,12.18-1.72a.12.12,0,0,1,.17.11v1.86a.11.11,0,0,0,.11.11h13.22a.11.11,0,0,0,0-.22,2.49,2.49,0,0,1-1.48-1.42,8.66,8.66,0,0,1-.27-2.45l-.27-34.57a.06.06,0,0,1,0,0,6.85,6.85,0,0,1,1.08-1.8,7.22,7.22,0,0,1,1.09-1.07.11.11,0,0,0-.07-.2H208.65a.11.11,0,0,0-.08.2,4.75,4.75,0,0,1,.85,1,5.26,5.26,0,0,1,.45.91c.35.93.32,15.73,0,35.91a.11.11,0,0,1,0,.08,7.38,7.38,0,0,1-3.7,2.33,4.83,4.83,0,0,1-2.63.09c-2.27-.81-2.8-4.91-3-6.9-.94-9.44-.15-28.21,0-31.49a.09.09,0,0,1,0-.05,6.71,6.71,0,0,1,.63-.88,6.51,6.51,0,0,1,1.15-1.07.12.12,0,0,0-.07-.21Z"/><path class="cls-13" d="M232.53,207.89a17.16,17.16,0,0,0,13.29-5.31.11.11,0,0,1,.19.08v44.83a.09.09,0,0,0,0,.07q.42.57,1,1.2c.33.34.64.65.95.93a.11.11,0,0,1-.08.19H232.8a.11.11,0,0,1-.08-.2,8.8,8.8,0,0,0,.9-.92,10,10,0,0,0,.94-1.37.13.13,0,0,0,0-.06V209.79a.13.13,0,0,0,0-.06,4.45,4.45,0,0,0-.83-1A4.26,4.26,0,0,0,232.53,207.89Z"/><path class="cls-13" d="M237.23,201.78a.34.34,0,0,0,.42.38,7.91,7.91,0,0,0,5-3.12,4.44,4.44,0,0,0-.91-6.36,4.48,4.48,0,0,0-6.45,6c.64.81,1.71,1.12,1.95,2.27A2.14,2.14,0,0,1,237.23,201.78Z"/><path class="cls-13" d="M258,209.8a6.51,6.51,0,0,1,1,1.23v24.56a13.06,13.06,0,0,0,1.14,6.72,13.68,13.68,0,0,0,8.12,6.95,12.05,12.05,0,0,0,8.77-.1,7.78,7.78,0,0,0,4-3.13,7.39,7.39,0,0,0,.72-2.09,4.19,4.19,0,0,0,.1-2.31,2.93,2.93,0,0,0-1.46-1.77,2.67,2.67,0,0,0-2.95.36,2.87,2.87,0,0,0-.54,2.86c.23.81.92,1.92,1.72,1.95.25,0,.44-.08.59.05s.08.95-.09,1.31c-.54,1.19-2.15,1.76-3.36,1.82a5.1,5.1,0,0,1-3.4-1.22,6.73,6.73,0,0,1-2.14-5.41v-29a5.09,5.09,0,0,1,1.91-2.9,5.15,5.15,0,0,1,4.18-.77v-1.19h-5.91v-5.44h-2a7.12,7.12,0,0,1-1.95,3.36,8,8,0,0,1-3.81,1.91,14.09,14.09,0,0,1-6.36.2v.84A6.6,6.6,0,0,1,258,209.8Z"/><path class="cls-13" d="M301.9,229.41a9.14,9.14,0,0,1,4.5-1.63h14.75V216.83a12.33,12.33,0,0,0-2.72-5.17,12.64,12.64,0,0,0-7.22-3.95c-8.2-.13-12-.07-14,0l-.64,0a9.41,9.41,0,0,0-7,4.72,9.13,9.13,0,0,0-1.11,3.86,107.33,107.33,0,0,0,0,22.62c.28,2.29.76,5.18,3,7.48,2,2,4.27,2.51,7.42,3.2,2.87.63,9.18,1.91,15.46-1.09a10.63,10.63,0,0,0,4.7-3.61,10.45,10.45,0,0,0,1.57-7.08H308v.73a5.39,5.39,0,0,1,2.78,1.9,5.58,5.58,0,0,1,.22,6,5.87,5.87,0,0,1-3.86,2.68,6.43,6.43,0,0,1-5.17-1.32,7.4,7.4,0,0,1-2.72-5.63v-9.85A9.09,9.09,0,0,1,301.9,229.41Zm-2.67-16.52a5.46,5.46,0,0,1,10.12-.91v13.3a18.43,18.43,0,0,0-5.27.77,18.74,18.74,0,0,0-4.85,2.27Z"/><path class="cls-13" d="M21.68,277.27A11.21,11.21,0,0,0,18.41,275c-1.37-.7-3.69-1.89-4.9-.91-.94.77-.81,2.51-.46,3.55a5.45,5.45,0,0,0,4.64,3.31.69.69,0,0,1,.5.27c.25.45-.35,1.51-1.14,2-1.49.84-3-.89-5.31-.32a3.58,3.58,0,0,0-1.82.91A3.46,3.46,0,0,0,9,286.67c.24,1.57,1.74,2.42,2.5,2.86C15.67,292,22,288.81,23,288.3a.85.85,0,0,1,.72.09c.51.39,0,1.67-.13,1.86a5.08,5.08,0,0,1-2.09,2.27c-1,.61-2.27,1.25-5.54,1.64-2.85.33-4.36.29-6.4-.59-1.8-.78-4.1-3-4-5.77a6.85,6.85,0,0,1,2.27-4.45,9.16,9.16,0,0,1,3.09-2.09A12.1,12.1,0,0,1,10.6,277a8.4,8.4,0,0,1,2.18-5.36A5.61,5.61,0,0,1,16.05,270a6.35,6.35,0,0,1,4,1.22,8.92,8.92,0,0,1,1.59,1.23C21.74,274.14,21.62,275.54,21.68,277.27Z"/><path class="cls-13" d="M29.72,286.89c0-.63-.07-5.05,0-8.82a2,2,0,0,1,.44-1.36c.75-.83,2.49-.85,4.12.24a3.41,3.41,0,0,1,2.45-.92,3.56,3.56,0,0,1,2.73,1.74,3.85,3.85,0,0,1,2.65-1.84c2-.21,3.38,1.81,3.61,2.14,1.78,2.62,1,6.63-1.12,8.89a6.82,6.82,0,0,1-1.43,1.19H41.81v-7.66a1.2,1.2,0,0,0-1.09-1.36,1.18,1.18,0,0,0-.89,1.33v6.4h-4.6v-6.51a1.12,1.12,0,0,0-1.12-1.22,1.14,1.14,0,0,0-1.06,1.26v6.49Z"/><path class="cls-13" d="M62.73,279.9a6,6,0,0,0-3.64-3.31,8.4,8.4,0,0,0-6.38.2.43.43,0,0,0-.25.38V293a.42.42,0,0,0,.41.41H55.5a.41.41,0,0,0,.41-.41v-5.61a.41.41,0,0,1,.49-.4A5.63,5.63,0,0,0,61,286,5.51,5.51,0,0,0,62.73,279.9ZM58,284.31a2.71,2.71,0,0,1-1.7.21.4.4,0,0,1-.34-.4V280a.41.41,0,0,1,.23-.37,2.35,2.35,0,0,1,1.5-.19,2.51,2.51,0,0,1,1.81,2.36A2.69,2.69,0,0,1,58,284.31Z"/><path class="cls-13" d="M79.84,278.74c-1.52-2.35-4.62-2.22-5-2.2-2.93.17-5.84,2.55-6,5.34a4.9,4.9,0,0,0,.91,3,5.9,5.9,0,0,0,5.85,2.53,6,6,0,0,0,3.85-2.66C79.57,284.55,81.55,281.39,79.84,278.74Zm-2.38,4.54A2.46,2.46,0,0,1,76.3,285c-1.3.56-3-1-3.71-2.08a2.91,2.91,0,0,1-.58-1.53,2.5,2.5,0,0,1,1.16-2.25,2.07,2.07,0,0,1,1-.27,3.13,3.13,0,0,1,2.35,1.36A3.59,3.59,0,0,1,77.46,283.28Z"/><path class="cls-13" d="M86,278.28a2.06,2.06,0,0,1,.65-1.5,2,2,0,0,1,2-.14c1.22.62,1,2.29,2.42,5.83.25.6.25,1.12.51,1.15.54.09,1.46-1.84,2.65-4.32a3.36,3.36,0,0,1,1.4-1.77,1.88,1.88,0,0,1,1.81,0,2.11,2.11,0,0,1,.64,1.53c.33,2.09.66,4.24,1.36,4.46s1.71-1.3,1.91-1.6a6.06,6.06,0,0,0,.92-2.45c.22-1.43-.19-1.82.24-2.49a2,2,0,0,1,2.18-.85,2,2,0,0,1,1,1.4c.1.39.37,1.67-1.23,4.39a12.93,12.93,0,0,1-6.47,6c-.29.1-.71.49-1.09.34-.59-.24-.44-1.35-1-3.14-.34-1.16-.66-2.29-1.19-2.35-.75-.08-1,2-3.24,3.89-.74.6-1.11.91-1.63.91C87.38,287.61,85.76,281,86,278.28Z"/><path class="cls-13" d="M115.59,283.35a4.94,4.94,0,0,0,3.62-1.29,3.91,3.91,0,0,0,.34-4.56c-1.3-2-4.32-1.74-6.07-.92a5.76,5.76,0,0,0-2.69,2.79,7.82,7.82,0,0,0-.3,5.68,4.57,4.57,0,0,0,2.07,2.59c1.68.95,4.11,0,5.42-1.4.75-.81,1.38-2,1.16-2.17s-.33.08-.89.27c-.3.1-1.83.62-2.76,0-.36-.26-.65-.71-.54-.89S115.44,283.33,115.59,283.35Zm-1.89-2.55a1.55,1.55,0,1,1,1.93,1.37A1.69,1.69,0,0,1,113.7,280.8Z"/><path class="cls-13" d="M126.18,276.45l-.06,7.8v0a2.94,2.94,0,0,0,.41,1.24,3,3,0,0,0,1.73,1.33,3.14,3.14,0,0,0,3.27-1.19c.4-.56.83-1.59.41-2s-1,.43-1.57.17c-.91-.4-1.11-2.91-.17-3.54a2.55,2.55,0,0,1,1.13-.17c1.3,0,1.53.2,2,0a2.41,2.41,0,0,0,1-2.14,3,3,0,0,0-.56-1.76.36.36,0,0,0-.3-.15h-2.25a.37.37,0,0,0-.33.19l-.5.95a.36.36,0,0,1-.69-.17v-.62a.37.37,0,0,0-.36-.37h-2.78Z"/><path class="cls-13" d="M141.83,287.61h.06a3.3,3.3,0,0,0,3.13-2.36.3.3,0,0,0,0-.1v-6.79l-2.77-1.3a6,6,0,0,1-1,.65A2.49,2.49,0,0,1,140,278a.38.38,0,0,0-.3.25c-.11.32-.42.83-.62,1.23a.36.36,0,0,0,.32.53h1.34a.36.36,0,0,1,.37.36q0,3.39,0,6.77a.34.34,0,0,0,.3.36Z"/><ellipse class="cls-13" cx="142.56" cy="272.32" rx="2.29" ry="2.41" transform="translate(-40.21 25.18) rotate(-8.85)"/><path class="cls-13" d="M304.19,287.61h.06a3.3,3.3,0,0,0,3.13-2.36.3.3,0,0,0,0-.1v-6.79l-2.78-1.3a5.75,5.75,0,0,1-1,.65,2.49,2.49,0,0,1-1.29.31.38.38,0,0,0-.3.25c-.12.32-.42.83-.63,1.23a.37.37,0,0,0,.33.53h1.34a.35.35,0,0,1,.36.36q0,3.39,0,6.77a.36.36,0,0,0,.31.36Z"/><ellipse class="cls-13" cx="304.92" cy="272.32" rx="2.29" ry="2.41" transform="translate(-38.27 50.16) rotate(-8.85)"/><path class="cls-13" d="M158.3,287.39c.69.38,3.08-1.85,4-4.72.31-.95,1.49-4.49-.46-6-1.29-1-3.55-.78-5.45.59v-1.14l-4.58,1.41v9.85h4.54v-8a1.16,1.16,0,0,1,.54-.77c.59-.28,1.35.28,1.46.36C160.27,280.39,157.24,286.83,158.3,287.39Z"/><path class="cls-13" d="M337.73,287.39c.69.38,3.08-1.85,4-4.72.31-.95,1.49-4.49-.46-6-1.29-1-3.55-.78-5.45.59v-1.14l-4.58,1.41v9.85h4.54v-8a1.16,1.16,0,0,1,.54-.77c.59-.28,1.35.28,1.46.36C339.7,280.39,336.67,286.83,337.73,287.39Z"/><path class="cls-13" d="M178.54,279a3.76,3.76,0,0,0-.9-1.86c-1.35-1.4-3.91-1.43-5.72-.54a6.16,6.16,0,0,0-2.59,2.59c-1.09,1.83-2,5-.5,6.85a3,3,0,0,0,2.22,1.18c.8-.06,1.37-.66,2.28-1.63a13,13,0,0,0,1.45-1.91c.77,5.46.38,6.82-.14,7a1.54,1.54,0,0,1-1.31-.36,2,2,0,0,1-.41-.68,2.69,2.69,0,0,0-3.55-.46c-1.1.87-.89,2.65-.27,3.59,1.12,1.69,4.15,1.64,6.08.68a7.16,7.16,0,0,0,3.14-3.72C180.25,285.74,179.31,282,178.54,279Zm-4.31,3.37a3.22,3.22,0,0,1-1.72,1.72,1.23,1.23,0,0,1-.82.05c-.66-.33-.63-2,0-4.18a1.41,1.41,0,0,1,.49-.82,1.72,1.72,0,0,1,1.5-.18,2,2,0,0,1,1.36.95C175.29,280.56,174.9,281.23,174.23,282.36Z"/><path class="cls-13" d="M213.71,276.28a.41.41,0,0,1-.68.32,13,13,0,0,0-2.57-1.65c-1.37-.7-3.69-1.89-4.9-.91-.94.77-.81,2.51-.45,3.55a5.44,5.44,0,0,0,4.63,3.31.68.68,0,0,1,.5.27c.25.45-.35,1.51-1.14,2-1.49.84-3-.89-5.31-.32a3.58,3.58,0,0,0-1.82.91,3.46,3.46,0,0,0-.95,2.95c.24,1.57,1.74,2.42,2.5,2.86,4.2,2.43,10.53-.72,11.53-1.23a.89.89,0,0,1,.73.09c.5.39-.06,1.67-.14,1.86a5.08,5.08,0,0,1-2.09,2.27c-1,.61-2.27,1.25-5.54,1.64-2.85.33-4.36.29-6.4-.59-1.8-.78-4.1-3-4-5.77a6.85,6.85,0,0,1,2.27-4.45,9.28,9.28,0,0,1,2.78-2,.4.4,0,0,0,.23-.46,12.35,12.35,0,0,1-.2-3.93,8.4,8.4,0,0,1,2.18-5.36A5.61,5.61,0,0,1,208.1,270a6.35,6.35,0,0,1,4,1.22,9.93,9.93,0,0,1,1.47,1.11.48.48,0,0,1,.13.3C213.77,273.9,213.71,275,213.71,276.28Z"/><path class="cls-13" d="M324.64,278.74c-1.52-2.35-4.62-2.22-5-2.2-2.93.17-5.83,2.55-6,5.34a5,5,0,0,0,.9,3,5.91,5.91,0,0,0,5.86,2.53,6,6,0,0,0,3.84-2.66C324.37,284.55,326.34,281.39,324.64,278.74Zm-2.39,4.54A2.4,2.4,0,0,1,321.1,285c-1.31.56-3-1-3.71-2.08a2.75,2.75,0,0,1-.58-1.53,2.49,2.49,0,0,1,1.15-2.25,2.08,2.08,0,0,1,1-.27,3.15,3.15,0,0,1,2.35,1.36A3.59,3.59,0,0,1,322.25,283.28Z"/><path class="cls-13" d="M232.6,271.27a1.17,1.17,0,0,0-1.43-1.07,3.05,3.05,0,0,0-.75.28,4.6,4.6,0,0,0-2.06,4.34,1.18,1.18,0,0,1-1.09,1.22,5.71,5.71,0,0,0-1.82.44,6.4,6.4,0,0,0-3.14,2.92c-1.48,2.67-1.35,6.53.34,7.63a2,2,0,0,0,1.23.34c.75-.06,1.18-.6,2.59-2.11s1.81-1.86,2-1.77c.5.2.36,1.87.34,2-.07.91-.31,1.11-.14,1.43.36.64,1.86.77,2.8.14a2.66,2.66,0,0,0,1-1.57C233.25,283,232.8,274.45,232.6,271.27Zm-7.22,12c-.69-.33-.27-2.61,0-3.82a1.14,1.14,0,0,1,1.13-.9l.28,0a2.17,2.17,0,0,1,1.63,1C229.06,281,226.26,283.71,225.38,283.28Z"/><path class="cls-13" d="M239.61,278a2.46,2.46,0,0,1,1.16-1.63,2.09,2.09,0,0,1,1.77.13,1.94,1.94,0,0,1,1,2.52c-.15.25-.17.29-.34.62a4.62,4.62,0,0,0,0,3.47c.3.88.83,1.58,1.36,1.7.89.21,1.63-1,2-2.52,0-.2.4-.47.27-3.27-.06-1.46-.09-1.94.27-2.31a2.3,2.3,0,0,1,1.78-.41,3.25,3.25,0,0,1,1,.26.63.63,0,0,1,.37.63c-.37,5.51-.26,7.86,0,8.72a1.25,1.25,0,0,1,0,1c-.26.48-.95.56-1.77.66-1.05.11-2.09.23-2.39-.28s.44-1.37.21-1.56-.91.51-1.71.88a4.7,4.7,0,0,1-4.22-.2C237.55,284.59,239.22,279.24,239.61,278Z"/><path class="cls-13" d="M262.63,280.08c1.58,0,2.07.43,2.63.09a2,2,0,0,0,.64-2.13c-.5-1.77-3.52-2-3.72-2a5.53,5.53,0,0,0-4.18,1.55c-2.16,2.21-1.23,5.41-1.09,5.85s1,3.15,3.4,3.86a4.55,4.55,0,0,0,4.77-1.41c.51-.7.77-1.7.5-1.9s-.7.31-1.5.59a3.52,3.52,0,0,1-2.77-.05c-1.25-.82-1.34-3.34-.36-4.13C261.31,280.11,261.75,280.1,262.63,280.08Z"/><path class="cls-13" d="M281.9,277.84a5.64,5.64,0,0,0-7.21-1c-1.78,1.19-2.11,3.33-2.39,5.11-.22,1.43-1,4.65.48,5.59a2.28,2.28,0,0,0,2.18,0c.33-.19.35-.34,1.56-2,.5-.7.78-1.07,1.3-1.3a1.41,1.41,0,0,1,1.09-.13c.61.29.7,1.76.14,3.6a1.4,1.4,0,0,0,.67.2,2.6,2.6,0,0,0,2-1.22,5.18,5.18,0,0,0,.95-2.86C282.91,280.87,283.05,279.23,281.9,277.84Zm-3.4,3.81c-.43,1.23-1.87,2.12-2.66,1.77-1-.46-1.29-3.17,0-4.08a1.92,1.92,0,0,1,2.25,0C279,280.09,278.52,281.57,278.5,281.65Z"/><path class="cls-13" d="M289.87,279.4,289.8,285a3.48,3.48,0,0,0,.82,1.22,3,3,0,0,0,2.38,1c.79-.08,2.09-.54,2.18-1.5.05-.51-.34-1-.81-1.5a8.05,8.05,0,0,0-1.16-1c-.52-.49-.84-1.63.13-4.56,1.82-.19,3-.74,3.07-1.37,0-.13,0-.45-.61-.88h-2.39v-1.57h-2.59v1.49h-1l-1.56,1.85v1.43Z"/><circle class="cls-14" cx="92.81" cy="141.46" r="2.69"/><ellipse class="cls-15" cx="118.81" cy="139.11" rx="2.59" ry="2.72"/><path class="cls-16" d="M154.07,136.39a4.12,4.12,0,0,1-8.24,0,3.11,3.11,0,0,1,.07-.69l7.89-.8A4.07,4.07,0,0,1,154.07,136.39Z"/><ellipse class="cls-17" cx="133.98" cy="141.13" rx="1.77" ry="1.87"/><ellipse class="cls-18" cx="141.97" cy="146.17" rx="3.06" ry="2.66" transform="translate(-59.03 112.69) rotate(-36.38)"/><path class="cls-19" d="M170.29,136.32a1.89,1.89,0,1,1-3.74,0,2.3,2.3,0,0,1,.35-1.27l3.21.33A2.42,2.42,0,0,1,170.29,136.32Z"/><ellipse class="cls-20" cx="178.83" cy="138.16" rx="1.33" ry="1.43"/><ellipse class="cls-21" cx="170.45" cy="153.58" rx="1.87" ry="1.74"/><ellipse class="cls-22" cx="206.72" cy="140.34" rx="2.18" ry="2.59"/><ellipse class="cls-23" cx="197.9" cy="155.45" rx="2.08" ry="2.25"/></svg>