<svg xmlns="http://www.w3.org/2000/svg" viewBox="0 0 1000 1000"><defs><style>.cls-1{fill:#20448c;}.cls-2{fill:#f9a56c;}.cls-3{fill:#4ebfa7;}.cls-4{fill:#9baad1;}.cls-5{fill:#e76a9e;}.cls-6{fill:#eee944;}.cls-7{fill:#7fd0e6;}.cls-8{fill:#81c4b5;}.cls-9{fill:#fff;}.cls-10{fill:#c385ba;}.cls-11{fill:#e76d6e;}.cls-12{fill:#9e8560;}.cls-13{fill:#e069a0;}.cls-14{fill:#4bc0b0;}.cls-15{fill:#d0292a;}.cls-16{fill:#ee3767;}.cls-17{fill:#f0ba43;}.cls-18{fill:#f8e94c;}.cls-19{fill:#f09756;}.cls-20{fill:#e3853b;}.cls-21{fill:#f8a762;}.cls-22{fill:#ef9951;}.cls-23{fill:#f39750;}</style></defs><g id="Layer_5" data-name="Layer 5"><path class="cls-1" d="M126.24,908.86A27.75,27.75,0,0,0,118,903c-3.44-1.77-9.28-4.75-12.33-2.29-2.36,1.91-2,6.29-1.14,8.91,1.53,4.44,6,7.59,11.64,8.33a1.69,1.69,0,0,1,1.26.69c.64,1.12-.87,3.78-2.85,4.9-3.76,2.12-7.48-2.22-13.36-.79a9.05,9.05,0,0,0-4.57,2.28,8.74,8.74,0,0,0-2.39,7.42c.6,4,4.36,6.09,6.27,7.19,10.58,6.11,26.49-1.8,29-3.08a2.09,2.09,0,0,1,1.83.23c1.26,1-.14,4.2-.34,4.68a13,13,0,0,1-5.26,5.71c-2.44,1.52-5.7,3.13-13.92,4.11-7.18.84-11,.74-16.1-1.49-4.53-2-10.32-7.6-10.16-14.5.12-5.39,3.91-9.32,5.71-11.19a23,23,0,0,1,7.76-5.25,30.53,30.53,0,0,1-.69-10.73c.42-3.56,1.07-9.18,5.48-13.47a14,14,0,0,1,8.22-4.22c4.36-.51,7.93,1.72,10.16,3.08a22.86,22.86,0,0,1,4,3.08C126.39,901,126.09,904.52,126.24,908.86Z"/><path class="cls-1" d="M146.45,933c0-1.57-.18-12.69,0-22.16a5.09,5.09,0,0,1,1.11-3.42c1.88-2.09,6.25-2.15,10.36.6a8.57,8.57,0,0,1,6.16-2.31,8.91,8.91,0,0,1,6.85,4.36c.42-.66,2.74-4.21,6.68-4.62,5.06-.53,8.51,4.55,9.08,5.39,4.47,6.58,2.38,16.66-2.83,22.35a17.55,17.55,0,0,1-3.59,3h-3.43V917c.17-2.07-1.45-3.54-2.74-3.42a3,3,0,0,0-2.22,3.34V933H160.32V916.62a2.76,2.76,0,1,0-5.48.09V933Z"/><path class="cls-1" d="M229.45,915.48c-2-5.44-7.17-7.53-9.14-8.33-7.05-2.88-13.69-.51-16.06.51a1,1,0,0,0-.61,1v39.75a1,1,0,0,0,1,1h6.62a1,1,0,0,0,1-1v-14.1a1,1,0,0,1,1.23-1,14.2,14.2,0,0,0,11.55-2.37A13.8,13.8,0,0,0,229.45,915.48Zm-11.89,11.08a7,7,0,0,1-4.28.54,1,1,0,0,1-.84-1V915.76a1,1,0,0,1,.58-.93,5.78,5.78,0,0,1,3.75-.49,6.32,6.32,0,0,1,4.56,5.94A6.73,6.73,0,0,1,217.56,926.56Z"/><path class="cls-1" d="M272.48,912.57c-3.82-5.92-11.62-5.6-12.61-5.54-7.36.43-14.67,6.4-15.08,13.41a12.58,12.58,0,0,0,2.28,7.59,14.83,14.83,0,0,0,14.73,6.35,15.17,15.17,0,0,0,9.66-6.68C271.8,927.16,276.77,919.22,272.48,912.57Zm-6,11.41c-.13.57-.73,3.36-2.91,4.28-3.27,1.42-7.51-2.48-9.32-5.22a7.05,7.05,0,0,1-1.46-3.85,6.32,6.32,0,0,1,2.91-5.66,5.39,5.39,0,0,1,2.4-.68c3-.11,5.11,2.47,5.9,3.43S267.37,920.33,266.48,924Z"/><path class="cls-1" d="M288,911.4a4.41,4.41,0,0,1,6.68-4.11c3.06,1.54,2.42,5.75,6.08,14.64.62,1.52.64,2.81,1.28,2.91,1.35.21,3.68-4.63,6.68-10.87.89-1.85,1.67-3.56,3.51-4.46a4.72,4.72,0,0,1,4.54,0c1.2.85,1.4,2.39,1.62,3.86.82,5.25,1.65,10.65,3.43,11.21s4.29-3.27,4.79-4a15.55,15.55,0,0,0,2.32-6.17c.56-3.59-.47-4.58.59-6.25s3.61-2.89,5.48-2.14,2.3,2.8,2.49,3.51c.26,1,.93,4.19-3.08,11-2.26,3.84-6.95,11.59-16.27,15.07-.73.27-1.78,1.23-2.74.85-1.49-.58-1.11-3.39-2.4-7.87-.84-2.92-1.66-5.77-3-5.91-1.87-.2-2.49,5.13-8.13,9.76-1.86,1.53-2.79,2.29-4.11,2.31C291.43,934.87,287.36,918.25,288,911.4Z"/><path class="cls-1" d="M362.38,924.16c2.91.41,7.11-1.24,9.08-3.26,2.62-2.69,3.15-8,.86-11.47-3.26-4.95-10.87-4.38-15.25-2.31a14.49,14.49,0,0,0-6.76,7,19.76,19.76,0,0,0-.77,14.3,11.55,11.55,0,0,0,5.22,6.5c4.23,2.38,10.33.11,13.62-3.51,1.87-2.06,3.46-4.95,2.91-5.48-.27-.25-.83.22-2.23.69-.75.25-4.6,1.55-6.93-.08-.92-.65-1.64-1.77-1.37-2.23S362,924.1,362.38,924.16Zm-4.76-6.42c-.62-2.42.55-4.82,2.61-5.35s4.24,1,4.86,3.45-.55,4.82-2.62,5.35S358.25,920.17,357.62,917.74Z"/><path class="cls-1" d="M389,906.79q-.09,9.81-.17,19.62a.41.41,0,0,0,0,.11,7.32,7.32,0,0,0,1,3.11,7.61,7.61,0,0,0,4.36,3.34,7.88,7.88,0,0,0,8.22-3c1-1.4,2.08-4,1-5-.82-.77-2.46,1.08-3.94.43-2.29-1-2.79-7.32-.43-8.91.5-.33,1.28-.36,2.83-.42,3.29-.14,3.84.49,5,0,1.91-.85,2.55-3.68,2.56-5.4a7.58,7.58,0,0,0-1.42-4.41.9.9,0,0,0-.75-.38h-5.66a.94.94,0,0,0-.82.49l-1.26,2.39a.92.92,0,0,1-1.73-.43V906.8a.93.93,0,0,0-.92-.93h-7Z"/><path class="cls-1" d="M428.34,934.87l.16,0a8.29,8.29,0,0,0,7.88-5.93.78.78,0,0,0,0-.26V911.62l-7-3.26a16.15,16.15,0,0,1-2.51,1.64,6.28,6.28,0,0,1-3.24.77,1,1,0,0,0-.76.64c-.29.8-1.05,2.07-1.56,3.09a.91.91,0,0,0,.81,1.32h3.38a.92.92,0,0,1,.91.92q0,8.52-.1,17a.9.9,0,0,0,.76.9Z"/><ellipse class="cls-1" cx="430.2" cy="896.41" rx="5.77" ry="6.05" transform="translate(-132.82 76.87) rotate(-8.85)"/><path class="cls-1" d="M836.59,934.87l.15,0a8.26,8.26,0,0,0,7.88-5.93.78.78,0,0,0,0-.26V911.62l-7-3.26a15.66,15.66,0,0,1-2.51,1.64,6.28,6.28,0,0,1-3.24.77,1,1,0,0,0-.75.64c-.29.8-1.06,2.07-1.57,3.09a.91.91,0,0,0,.81,1.32h3.38a.92.92,0,0,1,.91.92q0,8.52-.1,17a.9.9,0,0,0,.76.9Z"/><ellipse class="cls-1" cx="838.44" cy="896.41" rx="5.77" ry="6.05" transform="translate(-127.95 139.69) rotate(-8.85)"/><path class="cls-1" d="M469.75,934.32c1.75.93,7.76-4.66,10.16-11.88.8-2.4,3.76-11.29-1.14-15.07-3.25-2.51-8.92-2-13.7,1.49V906l-11.53,3.54v24.78H465v-20.1a2.91,2.91,0,0,1,1.37-1.94c1.47-.71,3.37.71,3.65.92C474.71,916.72,467.11,932.89,469.75,934.32Z"/><path class="cls-1" d="M920.92,934.32c1.74.93,7.76-4.66,10.16-11.88.8-2.4,3.76-11.29-1.14-15.07-3.26-2.51-8.93-2-13.7,1.49V906l-11.53,3.54v24.78h11.41v-20.1a3,3,0,0,1,1.37-1.94c1.48-.71,3.38.71,3.66.92C925.88,916.72,918.27,932.89,920.92,934.32Z"/><path class="cls-1" d="M520.66,913.2a9.37,9.37,0,0,0-2.28-4.68c-3.38-3.52-9.83-3.6-14.38-1.37a15.42,15.42,0,0,0-6.5,6.5c-2.75,4.6-5,12.53-1.26,17.24.25.32,2.61,3.19,5.59,3,2-.14,3.44-1.66,5.72-4.1a29.43,29.43,0,0,0,3.64-4.8c1.94,13.72,1,17.14-.34,17.58a3.87,3.87,0,0,1-3.3-.91,5,5,0,0,1-1-1.72c-1.19-2.07-6-3.4-8.9-1.14s-2.24,6.66-.69,9c2.81,4.25,10.44,4.12,15.29,1.71,4.4-2.18,6.31-6.12,7.89-9.37C524.94,930.15,522.58,920.83,520.66,913.2Zm-10.83,8.45c-1.13,1.9-2.23,3.7-4.35,4.33a2.91,2.91,0,0,1-2.05.12c-1.65-.83-1.57-5.11-.11-10.5a3.62,3.62,0,0,1,1.25-2.07,4.35,4.35,0,0,1,3.77-.45c.48.12,2.67.65,3.42,2.4S511.49,918.83,509.83,921.65Z"/><path class="cls-1" d="M609.1,906.38a1,1,0,0,1-1.72.79,32.71,32.71,0,0,0-6.46-4.13c-3.44-1.77-9.28-4.75-12.33-2.29-2.36,1.91-2,6.29-1.14,8.91,1.54,4.44,6,7.59,11.65,8.33a1.69,1.69,0,0,1,1.25.69c.64,1.12-.86,3.78-2.85,4.9-3.75,2.12-7.48-2.22-13.36-.79a9.07,9.07,0,0,0-4.56,2.28,8.71,8.71,0,0,0-2.4,7.42c.6,4,4.37,6.09,6.28,7.19,10.57,6.11,26.48-1.8,29-3.08a2.08,2.08,0,0,1,1.83.23c1.26,1-.14,4.2-.34,4.68a12.91,12.91,0,0,1-5.25,5.71c-2.45,1.52-5.71,3.13-13.93,4.11-7.18.84-11,.74-16.1-1.49-4.53-2-10.32-7.6-10.16-14.5.12-5.39,3.91-9.32,5.71-11.19a22.91,22.91,0,0,1,7-4.92,1,1,0,0,0,.57-1.17,30.22,30.22,0,0,1-.49-9.89c.41-3.56,1.06-9.18,5.48-13.47a14,14,0,0,1,8.22-4.22c4.35-.51,7.92,1.72,10.16,3.08a22.21,22.21,0,0,1,3.68,2.79,1,1,0,0,1,.33.74C609.25,900.38,609.09,903.24,609.1,906.38Z"/><path class="cls-1" d="M888,912.57c-3.82-5.92-11.62-5.6-12.61-5.54-7.36.43-14.67,6.4-15.08,13.41A12.58,12.58,0,0,0,862.6,928a14.83,14.83,0,0,0,14.73,6.35A15.17,15.17,0,0,0,887,927.7C887.33,927.16,892.3,919.22,888,912.57ZM882,924c-.13.57-.73,3.36-2.91,4.28-3.27,1.42-7.51-2.48-9.32-5.22a7.05,7.05,0,0,1-1.46-3.85,6.32,6.32,0,0,1,2.91-5.66,5.39,5.39,0,0,1,2.4-.68c3-.11,5.11,2.47,5.9,3.43S882.9,920.33,882,924Z"/><path class="cls-1" d="M656.59,893.77a2.94,2.94,0,0,0-3.59-2.68,7.85,7.85,0,0,0-1.9.7c-3.33,1.76-5.31,6-5.17,10.91a3,3,0,0,1-2.75,3.07,14.78,14.78,0,0,0-4.58,1.1,16.11,16.11,0,0,0-7.89,7.35c-3.73,6.72-3.4,16.42.86,19.18a5.19,5.19,0,0,0,3.09.86c1.87-.15,3-1.52,6.5-5.31,3.79-4.06,4.56-4.69,5.14-4.46,1.25.51.9,4.72.86,5.14-.19,2.28-.78,2.8-.35,3.59.9,1.61,4.67,1.94,7,.35a6.64,6.64,0,0,0,2.56-3.94C658.21,923.15,657.09,901.77,656.59,893.77ZM638.43,924c-1.74-.83-.67-6.56,0-9.61a2.91,2.91,0,0,1,2.86-2.27l.69.06c1.66.26,3.53,1.24,4.11,2.58C647.7,918.28,640.65,925.06,638.43,924Z"/><path class="cls-1" d="M674.22,910.63c.51-1.67,1.27-3.36,2.91-4.11a5.2,5.2,0,0,1,4.45.34c2.35,1.37,3.68,4.28,2.4,6.34a15.27,15.27,0,0,0-.86,1.54c-1.79,3.43-.42,7.49,0,8.73.75,2.22,2.08,4,3.42,4.28,2.23.52,4.08-2.56,5-6.33.12-.52,1-1.18.69-8.22-.17-3.68-.24-4.9.68-5.83,1.32-1.33,3.7-1.1,4.45-1a7.56,7.56,0,0,1,2.44.66,1.61,1.61,0,0,1,.92,1.58c-.94,13.84-.65,19.76.07,21.91a3.19,3.19,0,0,1,0,2.44c-.66,1.21-2.4,1.43-4.45,1.66-2.63.29-5.25.59-6-.68s1.09-3.46.52-3.94-2.27,1.27-4.29,2.22a11.81,11.81,0,0,1-10.61-.51C669,927.27,673.23,913.81,674.22,910.63Z"/><path class="cls-1" d="M732.1,915.94c4-.09,5.19,1.08,6.62.22s2.13-3.48,1.59-5.36c-1.26-4.46-8.85-5-9.36-5a13.88,13.88,0,0,0-10.5,3.89c-5.42,5.56-3.08,13.62-2.74,14.72.44,1.42,2.44,7.92,8.56,9.71,4.45,1.3,9.63-.3,12-3.54,1.28-1.76,1.93-4.28,1.26-4.8s-1.76.79-3.77,1.49c-.64.22-4.47,1.52-7-.12-3.16-2.08-3.39-8.4-.91-10.39C728.77,916,729.88,916,732.1,915.94Z"/><path class="cls-1" d="M780.56,910.29c-3.84-4.64-12.1-6.63-18.15-2.58-4.47,3-5.3,8.36-6,12.85-.57,3.6-2.47,11.68,1.19,14.05a5.75,5.75,0,0,0,5.49,0c.83-.49.88-.86,3.93-5.14,1.24-1.76,1.94-2.68,3.26-3.26.42-.19,1.81-.79,2.73-.34,1.54.75,1.76,4.43.35,9.07a3.93,3.93,0,0,0,1.7.51c2.49.15,4.34-2.24,5-3.07a13,13,0,0,0,2.4-7.2C783.08,917.92,783.44,913.79,780.56,910.29ZM772,919.88c-1.06,3.1-4.7,5.34-6.67,4.45-2.56-1.15-3.24-8,0-10.27a4.85,4.85,0,0,1,5.65,0C773.28,916,772.06,919.68,772,919.88Z"/><path class="cls-1" d="M800.59,914.22l-.17,14a8.79,8.79,0,0,0,2.06,3.09,7.63,7.63,0,0,0,6,2.39c2-.2,5.24-1.34,5.48-3.76.12-1.27-.86-2.4-2.06-3.77a20.4,20.4,0,0,0-2.91-2.57c-1.29-1.22-2.12-4.09.35-11.47,4.55-.46,7.59-1.85,7.7-3.43,0-.34-.06-1.14-1.54-2.22h-6v-3.94H803v3.73h-2.57L796.48,911v3.6Z"/></g><g id="Layer_4" data-name="Layer 4"><path class="cls-1" d="M225.83,714.54s1.74,8.08,8.49,4.4,16.58-11.56,16.58-11.56,3.89-3.38-.92-9.82-34.24-35.71-82.53-34.62S99.51,677.81,80.82,694s-17.73,28.24-17.73,28.24-.7,4.5,6.68,4.5h38.47s6.82,1.78,12.42-9.55,34.78-39.56,65.48-31.78S225.83,714.54,225.83,714.54Z"/><path class="cls-1" d="M54.36,741.24H107.7s-14.19,81.58,56.13,90.65c0,0,38.06,6.55,75.71-38.67,0,0,1.84-4.51,5.94,1.84a153.07,153.07,0,0,1,8.59,16.37s1.23,2.25-1.84,5.52-20.61,40.22-86.76,39.29C97.6,855.28,45,805.08,54.36,741.24Z"/><rect class="cls-1" x="293.49" y="757.61" width="98.76" height="24.28"/><path class="cls-1" d="M481.47,738.24c-.43-.6-8-10.67-19.64-9.55-.59.06-11.17,1.21-14.19,8.46-4.06,9.74,9.06,22.05,11.73,24.55,4.53,4.24,6.59,4.5,13.92,9.14,12.43,7.89,23.6,15,29,27.42a37.11,37.11,0,0,1-12,45.57c-12.45,9.55-32,12.81-47.34,3.68-2.68-1.6-15.86-9.47-17.87-25.24-.34-2.66-2.8-18,7.37-25.23,4.7-3.37,12.31-5.17,19.1-1.64a18.38,18.38,0,0,1,9.55,17.87c-.78,8.66-7.66,14.48-14,16.37a19.69,19.69,0,0,1-10.37.13,24.85,24.85,0,0,0,7,11.87,25.28,25.28,0,0,0,7.5,4.78c8,3.3,20.93,3.74,29.74-4.5,1.8-1.7,7.52-6.77,7.64-14.33.1-6.8-4.36-12.07-6.28-14.32a32.68,32.68,0,0,0-5.59-5A81.07,81.07,0,0,0,461,798.94c-5.26-2.37-21.08-9.5-28.51-23.59a36.79,36.79,0,0,1-3.68-24,35.1,35.1,0,0,1,11.73-20.19,34.57,34.57,0,0,1,31.1-6.69,36.18,36.18,0,0,1,12.14,6.41c2.89,2.31,6.12,4.89,8.19,9.42,2.41,5.29,3.4,13.57-1.23,19.5a14.38,14.38,0,0,1-6.28,4.64,14.76,14.76,0,0,1-16-4.23,14.14,14.14,0,0,1-2.18-15.14c.14-.28,3.19-6.24,9.69-7.23A12.47,12.47,0,0,1,481.47,738.24Z"/><path class="cls-1" d="M532,724.61a.34.34,0,0,0-.18.64,14.08,14.08,0,0,1,5.09,5.08,14.42,14.42,0,0,1,1.63,7.91c-.81,18,.55,36,0,54-.38,12.51-.14,15.42,0,17,.94,9.84,2,21.3,10.37,30.52a36.87,36.87,0,0,0,15.82,10.1c17.2,5.74,32.76-2.82,36.6-5.14a.34.34,0,0,1,.51.3v5.59a.34.34,0,0,0,.34.34h39.7a.34.34,0,0,0,.14-.66,7.4,7.4,0,0,1-4.44-4.25,25.24,25.24,0,0,1-.82-7.37q-.4-51.93-.82-103.87a.32.32,0,0,1,0-.14,21.52,21.52,0,0,1,6.53-8.6.34.34,0,0,0-.22-.61H596.46a.34.34,0,0,0-.23.59,14.35,14.35,0,0,1,2.56,3,16.73,16.73,0,0,1,1.36,2.73c1.05,2.8,1,47.27,0,107.92a.31.31,0,0,1-.07.21,22,22,0,0,1-11.11,7c-1.73.43-5.08,1.27-7.92.27-6.82-2.42-8.4-14.73-9-20.74-2.82-28.36-.43-84.76,0-94.59a.29.29,0,0,1,0-.16A19.26,19.26,0,0,1,574,729a18.89,18.89,0,0,1,3.48-3.21.34.34,0,0,0-.21-.62Z"/><path class="cls-1" d="M668.22,725.28a51.77,51.77,0,0,0,39.93-15.95.34.34,0,0,1,.59.23v134.7a.31.31,0,0,0,.07.2,43.88,43.88,0,0,0,3,3.59c1,1,1.91,2,2.82,2.8a.33.33,0,0,1-.23.58H669a.33.33,0,0,1-.22-.59,26,26,0,0,0,2.69-2.79,26.92,26.92,0,0,0,2.82-4.11.35.35,0,0,0,0-.17V731a.31.31,0,0,0,0-.17,13.19,13.19,0,0,0-6.1-5.52Z"/><path class="cls-1" d="M682.34,706.92a1,1,0,0,0,1.28,1.14c3.62-.78,10.64-3,14.89-9.38a14.42,14.42,0,0,0,2.86-8.32c0-6.62-5.33-10.59-5.59-10.78-4.83-3.51-12.14-3.7-16.92.41-5.57,4.8-5.62,13.67-2.45,17.74,1.9,2.43,5.13,3.35,5.86,6.82A6.61,6.61,0,0,1,682.34,706.92Z"/><path class="cls-1" d="M744.61,731a20.34,20.34,0,0,1,3,3.68v73.8A39.23,39.23,0,0,0,751,828.68c6.58,14.09,19.72,19.33,24.41,20.87,3.91,1.29,14.79,4.86,26.33-.27,3.27-1.45,8.87-3.64,12.14-9.41a22.89,22.89,0,0,0,2.19-6.28c.59-2.79,1-4.68.27-7a8.79,8.79,0,0,0-4.37-5.32c-2.56-1.24-6.34-1.32-8.86,1.09-3.25,3.09-1.86,7.85-1.64,8.59.71,2.45,2.78,5.76,5.18,5.87.75,0,1.33-.25,1.78.13.83.72.23,2.86-.28,4-1.63,3.57-6.45,5.29-10.09,5.46a15.25,15.25,0,0,1-10.23-3.69c-6.92-5.67-6.49-15-6.41-16.23v-87a15.11,15.11,0,0,1,5.73-8.72,15.55,15.55,0,0,1,12.55-2.32v-3.56H782V708.5h-6a21.43,21.43,0,0,1-5.86,10.1c-3.69,3.57-7.71,4.7-11.45,5.73a42.34,42.34,0,0,1-19.1.61v2.52A20.07,20.07,0,0,1,744.61,731Z"/><path class="cls-1" d="M876.67,789.94a27.41,27.41,0,0,1,13.5-4.91H934.5v-32.9a36.9,36.9,0,0,0-8.17-15.52,37.92,37.92,0,0,0-21.71-11.88c-24.62-.38-36.19-.21-42,0-.38,0-1,0-1.9.15a28.26,28.26,0,0,0-21.15,14.18,27.56,27.56,0,0,0-3.35,11.59c-1.63,16.93-3.12,42.72,0,68,.85,6.88,2.3,15.58,9,22.49,5.88,6,12.82,7.55,22.3,9.62,8.64,1.87,27.58,5.74,46.45-3.29,4.74-2.26,10-4.87,14.12-10.83,5.77-8.43,5.13-17.79,4.71-21.29H894.93v2.2a16.09,16.09,0,0,1,8.33,5.72c4,5.34,3.85,12.73.69,18.14-3.61,6.17-10,7.71-11.6,8-8.18,1.7-14.4-3.08-15.55-4-7.89-6.06-8.18-15.63-8.18-16.91V799A27.2,27.2,0,0,1,876.67,789.94Zm-8-49.66A16.42,16.42,0,0,1,899,737.56v40a55,55,0,0,0-30.41,9.14Z"/></g><g id="Layer_3" data-name="Layer 3"><path class="cls-1" d="M468.38,372.47c-21.82-32.29-77.4-35.56-77.4-35.56l-2.69,108.18h28.09V428.35l25.7,24.21,20-7.17-20-21.81S490.19,404.75,468.38,372.47Zm-51.2,31.58V383.52s21.11,1.4,21.72,11.35S417.18,404.05,417.18,404.05Z"/><polygon class="cls-1" points="509.23 447.68 550.07 447.68 550.07 335.91 514.61 339.29 509.23 447.68"/><polygon class="cls-1" points="702.49 332.53 702.49 385.72 658.66 388.9 658.26 447.69 620.41 447.69 619.61 391.9 582.55 392.3 582.34 344.68 653.65 337.47 688.28 333.96 702.49 332.53"/><polygon class="cls-1" points="791 413.56 814.02 412.81 814.02 444.95 734.96 444.95 771.83 368.37 735.57 369.17 735.36 333.51 745.82 334.61 759.91 336.09 817.3 342.13 791 413.56"/><polygon class="cls-1" points="849.73 336.3 882.41 336.3 896.56 371.97 912.89 333.51 948.16 333.71 893.57 452.46 861.09 439.71 877.68 399.51 849.73 336.3"/><circle class="cls-2" cx="420.71" cy="362.75" r="11.81"/><ellipse class="cls-3" cx="534.78" cy="352.44" rx="11.36" ry="11.95"/><path class="cls-4" d="M689.54,340.49a18.09,18.09,0,0,1-36.17,0,15.86,15.86,0,0,1,.28-3L688.28,334A17.22,17.22,0,0,1,689.54,340.49Z"/><ellipse class="cls-5" cx="601.38" cy="361.31" rx="7.77" ry="8.22"/><ellipse class="cls-6" cx="636.44" cy="383.43" rx="13.45" ry="11.66" transform="translate(-103.39 452.18) rotate(-36.38)"/><path class="cls-7" d="M760.71,340.18c0,5.3-3.67,9.58-8.22,9.58s-8.21-4.28-8.21-9.58a10.45,10.45,0,0,1,1.54-5.57l14.1,1.48A10.72,10.72,0,0,1,760.71,340.18Z"/><ellipse class="cls-8" cx="798.18" cy="348.26" rx="5.83" ry="6.28"/><ellipse class="cls-9" cx="761.42" cy="415.95" rx="8.22" ry="7.62"/><ellipse class="cls-10" cx="920.56" cy="357.82" rx="9.56" ry="11.36"/><ellipse class="cls-11" cx="881.86" cy="424.17" rx="9.12" ry="9.86"/></g><g id="Layer_2" data-name="Layer 2"><polygon class="cls-12" points="162.62 545.46 240.55 579.55 244.88 609.86 164.78 577.93 162.62 545.46"/><polygon class="cls-12" points="236.8 545.46 314.73 579.55 319.06 609.86 238.97 577.93 236.8 545.46"/><polygon class="cls-12" points="151.16 481.01 124.1 311.08 51.58 293.22 107.32 480.47 151.16 481.01"/><polygon class="cls-13" points="149.63 479.7 349.5 479.7 340.49 546.81 158.65 546.81 149.63 479.7"/><polygon class="cls-14" points="217.55 286.95 350.59 479.7 149.63 479.7 217.55 286.95"/><polygon class="cls-15" points="330.11 291.55 282.58 246.99 298.72 289.39 330.11 291.55"/><polygon class="cls-16" points="332.19 237.97 309.64 272.97 286.82 256.1 277.17 231.66 332.19 237.97"/><polygon class="cls-12" points="203.2 167.35 155.04 166.27 170.19 148.95 213.22 152.2 203.2 167.35"/><polygon class="cls-12" points="187.65 189.67 136.64 189.27 110.39 217.68 170.46 213.62 187.65 189.67"/><path class="cls-12" d="M163.21,441.12l25.6-72.62,26.35,72.44S164.56,439.77,163.21,441.12Z"/><polygon class="cls-17" points="317.39 157.34 211.05 157.34 341.75 129.19 317.39 157.34"/><polygon class="cls-18" points="212.4 156.25 256.78 156.25 341.75 129.19 212.4 156.25"/><polygon class="cls-19" points="213.22 152.2 317.39 157.34 270.04 209.02 170.46 213.62 213.22 152.2"/><polygon class="cls-20" points="298.72 289.39 170.46 213.62 270.04 209.02 298.72 289.39"/><polygon class="cls-21" points="270.04 209.02 347.97 196.3 317.39 157.34 270.04 209.02"/><polygon class="cls-22" points="170.46 213.62 268.69 271.53 217.55 286.95 170.46 213.62"/><polygon class="cls-23" points="347.97 196.3 353.11 225.8 311.98 250.15 278.07 232.2 270.04 209.02 347.97 196.3"/></g></svg>